Coordinates
version=1
nRows=11
nColumns=40
inDegrees=yes

Units are S.I. units (second, meters, Newtons, ...)
Angles are in degrees.

endheader
time	pelvis_tilt	pelvis_list	pelvis_rotation	pelvis_tx	pelvis_ty	pelvis_tz	hip_flexion_r	hip_adduction_r	hip_rotation_r	knee_angle_r	knee_angle_r_beta	ankle_angle_r	subtalar_angle_r	mtp_angle_r	hip_flexion_l	hip_adduction_l	hip_rotation_l	knee_angle_l	knee_angle_l_beta	ankle_angle_l	subtalar_angle_l	mtp_angle_l	lumbar_extension	lumbar_bending	lumbar_rotation	arm_flex_r	arm_add_r	arm_rot_r	elbow_flex_r	pro_sup_r	wrist_flex_r	wrist_dev_r	arm_flex_l	arm_add_l	arm_rot_l	elbow_flex_l	pro_sup_l	wrist_flex_l	wrist_dev_l
     35.47000000	     -1.05584248	     -4.87591426	      1.04924888	      1.10264060	      0.93400500	      0.51195918	      7.80525797	      3.28149461	    -12.92410724	     16.58916027	     16.58916027	     12.02703675	      2.80738436	     -3.98931871	     27.41304944	    -12.13512606	      2.52253923	     62.32001422	     62.32001422	      7.92661768	    -17.11827430	      8.62495798	     -9.52282963	      4.77411774	      0.83898212	     18.84917189	    -20.45110111	     -5.25494012	     76.13824612	     45.41719001	      0.00000000	      0.00000000	     -3.98775660	    -10.19717895	     -3.74776508	     29.85323384	     45.51617394	      0.00000000	      0.00000000
     35.48264286	     -1.27062635	     -4.79185346	      1.39837784	      1.10121620	      0.93415536	      0.51238052	      7.57534502	      3.27416933	    -13.14019123	     16.26722035	     16.26722035	     12.14755243	      2.74696166	     -3.99480605	     28.52265995	    -12.03030524	      2.30217922	     60.13203159	     60.13203159	      8.34154010	    -17.18860898	      8.73665844	     -9.33111567	      4.75776738	      1.32821058	     19.87631307	    -20.66769467	     -5.38618996	     76.52557374	     45.41343343	      0.00000000	      0.00000000	     -4.52856779	     -9.70524500	     -3.64967036	     29.38011681	     45.49611156	      0.00000000	      0.00000000
     35.49528571	     -1.31468686	     -4.61025170	      1.75951711	      1.09998707	      0.93479749	      0.51265843	      6.76885047	      3.24591967	    -13.37060332	     15.20632458	     15.20632458	     12.11047039	      3.03084328	     -3.93691337	     29.17867858	    -11.68082324	      2.12294930	     57.53220662	     57.53220662	      8.45668858	    -17.62579482	      8.95510493	     -9.37323871	      4.63578644	      1.32089903	     21.21501541	    -20.40066486	     -5.46046930	     77.45621068	     45.39059819	      0.00000000	      0.00000000	     -5.16157062	     -9.23894465	     -3.47701937	     28.26874888	     45.47337565	      0.00000000	      0.00000000
     35.50792857	     -1.40668106	     -4.54612153	      2.12779750	      1.09871280	      0.93508919	      0.51287494	      6.18381570	      3.29760941	    -13.68203110	     14.45151139	     14.45151139	     12.06544673	      3.26807830	     -4.06552810	     29.79532778	    -11.45701301	      1.94260087	     54.77391713	     54.77391713	      8.69189410	    -17.73387025	      9.10885367	     -9.37138603	      4.68781193	      1.55328569	     22.38553986	    -20.41465110	     -5.58411879	     78.25325848	     45.37337080	      0.00000000	      0.00000000	     -5.73141111	     -8.76377648	     -3.38685662	     27.53310388	     45.46659264	      0.00000000	      0.00000000
     35.52057143	     -1.63552586	     -4.64060230	      2.49602019	      1.09733732	      0.93487803	      0.51311475	      6.05183023	      3.45961877	    -13.95730634	     14.25350471	     14.25350471	     12.20161310	      3.17640479	     -4.13152220	     30.52488974	    -11.38552301	      1.83372518	     51.91637000	     51.91637000	      9.00896213	    -17.47924520	      9.39520068	     -9.14184599	      4.90032847	      2.05703931	     23.32609399	    -20.66451762	     -5.72981754	     78.63910687	     45.36989439	      0.00000000	      0.00000000	     -6.27971847	     -8.38528721	     -3.35434298	     27.34667157	     45.45374195	      0.00000000	      0.00000000
     35.53321429	     -1.65714831	     -4.34503154	      2.81477373	      1.09622504	      0.93531179	      0.51302978	      5.29615541	      3.27414532	    -14.13450579	     13.32782384	     13.32782384	     12.15948467	      3.44807742	     -4.13978732	     30.64826130	    -10.81688219	      1.54764087	     48.57750781	     48.57750781	      9.01408661	    -17.53979489	      9.84572256	     -9.28314180	      4.63349747	      2.12698580	     24.48471040	    -20.51118297	     -5.83593779	     79.56827919	     45.34796525	      0.00000000	      0.00000000	     -6.97309768	     -7.99891870	     -3.31617232	     27.04466183	     45.44397867	      0.00000000	      0.00000000
     35.54585714	     -1.74139061	     -4.33594072	      3.18748856	      1.09503849	      0.93526193	      0.51283660	      4.78235879	      3.34257270	    -14.51087241	     12.70779961	     12.70779961	     12.12851209	      3.72965816	     -4.34014045	     30.87402228	    -10.48204721	      1.51102703	     45.22638519	     45.22638519	      9.05588108	    -17.22270972	     10.04559547	     -9.32365405	      4.73874654	      2.25547257	     25.53853058	    -20.46069801	     -5.92124423	     80.36540202	     45.32946094	      0.00000000	      0.00000000	     -7.58286677	     -7.61196406	     -3.31312598	     26.91309062	     45.44379363	      0.00000000	      0.00000000
     35.55850000	     -1.94055138	     -4.30473298	      3.51804172	      1.09380469	      0.93490034	      0.51256172	      4.53830944	      3.34855565	    -14.76944306	     12.36011329	     12.36011329	     12.22313659	      3.79362078	     -4.47323106	     31.13263089	    -10.12049497	      1.43211482	     41.80202976	     41.80202976	      9.09331719	    -16.50340831	     10.31187192	     -9.21820296	      4.78383774	      2.53253651	     26.49368431	    -20.54524320	     -5.99790464	     80.88589354	     45.31936870	      0.00000000	      0.00000000	     -8.06199698	     -7.26035762	     -3.29612361	     26.82687015	     45.43751039	      0.00000000	      0.00000000
     35.57114286	     -2.02262837	     -4.31570895	      3.86553667	      1.09266005	      0.93462659	      0.51213440	      4.16445298	      3.39138057	    -15.10069310	     12.01658998	     12.01658998	     12.29748688	      3.96976883	     -4.64332744	     31.15669375	     -9.76707468	      1.42904587	     38.27901458	     38.27901458	      8.95733251	    -15.52990504	     10.47104326	     -9.25245846	      4.88889008	      2.68796590	     27.39797013	    -20.47869695	     -6.00674530	     81.43469484	     45.30589507	      0.00000000	      0.00000000	     -8.51138849	     -6.96653050	     -3.28385870	     26.76287445	     45.43374838	      0.00000000	      0.00000000
     35.58378571	     -2.07626133	     -4.34584410	      4.19864976	      1.09161481	      0.93426812	      0.51157478	      3.76434357	      3.43770964	    -15.50446677	     11.69597098	     11.69597098	     12.39231920	      4.27203273	     -4.87650001	     31.06506939	     -9.43743665	      1.41525925	     34.77991836	     34.77991836	      8.70855342	    -14.19764500	     10.34502961	     -9.31671562	      5.02812179	      2.77926920	     28.29787664	    -20.34344013	     -5.94721788	     81.92836260	     45.29210297	      0.00000000	      0.00000000	     -8.92148736	     -6.69084201	     -3.27438143	     26.74701701	     45.43352411	      0.00000000	      0.00000000
     35.59642857	     -2.15339175	     -4.43007956	      4.52151276	      1.09063821	      0.93369427	      0.51088152	      3.42471722	      3.49494364	    -16.11052321	     11.44675492	     11.44675492	     12.42932427	      4.87282581	     -5.50221814	     30.88440855	     -9.18158719	      1.33787607	     31.22661052	     31.22661052	      7.40281303	    -12.79869953	      7.84552642	     -9.33485661	      5.21780588	      2.67402025	     29.42971348	    -20.15968092	     -5.45928309	     81.87199586	     45.28604945	      0.00000000	      0.00000000	     -9.49920196	     -6.41458208	     -3.35737918	     27.12565232	     45.48898808	      0.00000000	      0.00000000
